<?xml version="1.0" standalone="no"?>
<!DOCTYPE svg PUBLIC "-//W3C//DTD SVG 20010904//EN"
 "http://www.w3.org/TR/2001/REC-SVG-20010904/DTD/svg10.dtd">
<svg version="1.0" xmlns="http://www.w3.org/2000/svg"
 width="200.000000pt" height="200.000000pt" viewBox="0 0 200.000000 200.000000"
 preserveAspectRatio="xMidYMid meet">

<g transform="translate(0.000000,200.000000) scale(0.100000,-0.100000)"
fill="#000000" stroke="none">
<path d="M428 1392 l-218 -126 0 -66 0 -65 220 -128 c120 -70 222 -127 225
-127 11 0 325 183 325 189 0 8 -85 51 -99 51 -5 0 -57 -27 -115 -61 l-106 -61
-1 -56 -2 -57 -9 60 -10 60 -114 69 c-63 37 -114 70 -114 73 0 2 3 2 8 0 118
-67 233 -127 242 -127 6 0 54 25 107 56 l96 57 -39 23 c-49 30 -54 30 -115 -5
l-50 -28 -120 65 c-65 36 -119 69 -119 73 0 9 225 139 240 139 6 0 159 -85
340 -190 181 -104 334 -190 340 -190 9 0 102 49 248 132 104 59 49 19 -93 -67
l-145 -88 0 -41 c0 -30 -3 -37 -10 -26 -5 8 -10 29 -10 45 -1 29 -14 38 -328
217 -179 103 -327 186 -328 185 -1 -1 -4 -23 -8 -48 l-7 -45 339 -202 c186
-111 342 -202 347 -202 4 0 106 57 227 126 l218 126 0 67 0 67 -217 124 c-119
69 -222 126 -229 128 -10 2 -313 -165 -333 -184 -2 -1 21 -15 51 -30 l55 -27
106 62 c58 33 111 61 116 61 19 0 230 -125 231 -136 0 -5 -52 -40 -116 -76
l-117 -66 -46 28 c-245 149 -625 370 -634 369 -7 0 -110 -57 -229 -127z m-28
-238 c0 -2 -9 0 -20 6 -11 6 -20 13 -20 16 0 2 9 0 20 -6 11 -6 20 -13 20 -16z"/>
<path d="M1349 1347 c-2 -30 -2 -30 -6 -4 -2 15 -9 27 -15 27 -6 0 -51 -23
-100 -51 l-89 -52 38 -23 c48 -30 55 -30 114 4 l49 27 55 -30 56 -30 45 24
c25 13 41 28 37 32 -4 4 -47 30 -95 58 l-88 50 -1 -32z"/>
<path d="M537 1318 l-88 -51 42 -23 c51 -30 51 -30 110 3 48 26 49 27 49 75 0
32 -4 48 -12 47 -7 0 -53 -23 -101 -51z"/>
<path d="M244 764 c-30 -15 -54 -50 -54 -79 0 -25 49 -71 88 -83 46 -14 67
-35 58 -58 -5 -14 -17 -16 -70 -12 -59 5 -65 4 -70 -16 -8 -30 6 -39 68 -44
100 -8 146 19 146 86 0 46 -24 72 -92 97 -26 9 -49 23 -52 30 -9 24 22 38 70
31 40 -5 46 -3 53 17 7 18 4 24 -18 34 -36 17 -90 15 -127 -3z"/>
<path d="M1600 769 c-92 -38 -124 -149 -69 -238 35 -58 140 -80 208 -43 91 49
96 209 8 267 -31 20 -114 28 -147 14z m95 -55 c22 -9 45 -57 45 -97 0 -50 -33
-87 -78 -87 -54 0 -82 31 -82 92 0 74 52 116 115 92z"/>
<path d="M460 670 c0 -64 5 -113 14 -135 37 -88 195 -88 232 0 9 22 14 71 14
135 l0 100 -35 0 -35 0 0 -98 c0 -112 -13 -142 -60 -142 -47 0 -60 30 -60 142
l0 98 -35 0 -35 0 0 -100z"/>
<path d="M787 763 c-4 -3 -7 -68 -7 -144 l0 -138 36 -7 c48 -9 146 1 172 17
45 28 54 88 18 124 -20 20 -22 26 -10 36 24 20 17 75 -12 98 -22 17 -41 21
-109 21 -45 0 -85 -3 -88 -7z m152 -57 c18 -21 3 -43 -35 -51 -44 -8 -54 -1
-54 36 0 27 3 29 39 29 21 0 44 -6 50 -14z m12 -122 c22 -26 -1 -49 -55 -52
l-46 -3 0 35 c0 36 0 36 44 36 28 0 48 -6 57 -16z"/>
<path d="M1090 620 l0 -150 30 0 30 0 0 150 0 150 -30 0 -30 0 0 -150z"/>
<path d="M1230 620 l0 -151 33 3 c31 3 32 4 35 56 4 72 29 71 74 -3 29 -49 36
-55 65 -55 41 0 42 12 3 74 l-31 48 26 24 c33 31 34 83 1 121 -23 26 -30 28
-115 31 l-91 4 0 -152z m134 90 c49 -18 26 -70 -31 -70 -32 0 -33 1 -33 40 0
44 13 50 64 30z"/>
</g>
</svg>
